<svg xmlns="http://www.w3.org/2000/svg" xmlns:xlink="http://www.w3.org/1999/xlink">

    <symbol id="first" viewBox="0 0 30 30">
        <path
            d="M15 0C6.72938 0 0 6.71218 0 14.9617C0 22.968 6.285 29.525 14.3081 29.8897L16.7231 30L11.6175 24.9074C11.0869 24.3782 10.7944 23.6731 10.7944 22.9231C10.7944 22.1732 11.0869 21.47 11.6175 20.9388C12.6788 19.8803 14.5331 19.8803 15.5944 20.9388L22.5675 27.8941L23.205 27.4771C27.4613 24.698 30 20.0187 30 14.9617C30 6.71218 23.2706 0 15 0ZM22.8 25.4816L16.9219 19.6185C15.1537 17.853 12.0619 17.853 10.2937 19.6185C9.40875 20.5012 8.92125 21.6757 8.92125 22.925C8.92125 24.1743 9.40875 25.3488 10.2937 26.2315L11.6831 27.6174C6.00937 26.153 1.875 21.0342 1.875 14.9617C1.875 7.74266 7.7625 1.87021 15 1.87021C22.2375 1.87021 28.125 7.74266 28.125 14.9617C28.125 19.1322 26.1488 23.0129 22.8 25.4816ZM20.625 11.2212C18.5569 11.2212 16.875 12.8988 16.875 14.9617C16.875 17.0245 18.5569 18.7021 20.625 18.7021C22.6931 18.7021 24.375 17.0245 24.375 14.9617C24.375 12.8988 22.6931 11.2212 20.625 11.2212ZM20.625 16.8319C19.5919 16.8319 18.75 15.9921 18.75 14.9617C18.75 13.9312 19.5919 13.0915 20.625 13.0915C21.6581 13.0915 22.5 13.9312 22.5 14.9617C22.5 15.9921 21.6581 16.8319 20.625 16.8319ZM15 10.2861C13.4475 10.2861 12.1875 9.03123 12.1875 7.48083C12.1875 5.93043 13.4475 4.67552 15 4.67552C16.5544 4.67552 17.8125 5.93043 17.8125 7.48083C17.8125 9.03123 16.5544 10.2861 15 10.2861ZM9.84375 10.0823C9.84375 11.1146 9.00375 11.9525 7.96875 11.9525C6.93375 11.9525 6.09375 11.1146 6.09375 10.0823C6.09375 9.04993 6.93375 8.21208 7.96875 8.21208C9.00375 8.21208 9.84375 9.04806 9.84375 10.0823Z"
            fill="#181818" />
    </symbol>
    <symbol id="bubble" viewBox="0 0 20 17">
        <path
            d="M6.84211 4C10.6211 4 13.6842 6.91 13.6842 10.5C13.6842 14.09 10.6211 17 6.84211 17C3.06316 17 0 14.09 0 10.5C0 6.91 3.06316 4 6.84211 4ZM17.8947 0C19.0526 0 20 0.9 20 2C20 3.1 19.0526 4 17.8947 4C16.7368 4 15.7895 3.1 15.7895 2C15.7895 0.9 16.7368 0 17.8947 0Z"
            fill="#FD8D7B" />
    </symbol>
    <symbol id="second" viewBox="0 0 29 28">
        <path
            d="M28.4899 16.6598L13.3622 1.517L13.1336 1.74268C11.9941 0.621053 10.4861 0.00169687 8.88082 0C8.88082 0 8.88082 0 8.87912 0C7.26194 0 5.73859 0.627841 4.59394 1.76644C3.44759 2.90504 2.81641 4.41864 2.81641 6.03236C2.81641 7.62911 3.44076 9.12914 4.56835 10.2627L0.801765 14.011C0.284882 14.5269 0 15.209 0 15.9336C0 16.6615 0.283176 17.342 0.796647 17.851L9.00365 26.0961C9.51882 26.6086 10.2046 26.8919 10.933 26.8919C11.6648 26.8919 12.3506 26.6069 12.8658 26.0927L22.3471 16.6615L28.4899 16.6598ZM4.52229 6.03066C4.52229 4.8734 4.97606 3.78571 5.8 2.96612C6.62394 2.14823 7.71571 1.69687 8.87912 1.69687C8.88082 1.69687 8.88082 1.69687 8.88082 1.69687C10.0306 1.69687 11.1087 2.14145 11.9275 2.94237L5.77612 9.06297C4.96923 8.24677 4.52229 7.17435 4.52229 6.03066ZM11.6563 24.8947C11.4635 25.0865 11.2042 25.1951 10.9313 25.1951C10.6584 25.1951 10.4008 25.0899 10.2114 24.8998L4.00882 18.6655H17.9186L11.6563 24.8947ZM19.6245 16.9687H2.31829L2.00612 16.6531C1.81165 16.4613 1.70588 16.2068 1.70588 15.9353C1.70588 15.6621 1.81335 15.4059 2.00782 15.2107L13.3588 3.91976L24.3924 14.9647L21.6391 14.9664L19.6245 16.9687ZM26.7619 20.2928L26.0676 19.2679L25.3545 20.2826C24.8104 21.0581 23.0294 23.695 23.0294 25.0305C23.0294 26.668 24.3685 28 26.0147 28C27.6609 28 29 26.6663 29 25.0288C29 23.7018 27.2873 21.0683 26.7619 20.2928ZM26.0147 26.3014C25.3102 26.3014 24.7353 25.7296 24.7353 25.0288C24.7353 24.6215 25.3306 23.4677 26.042 22.3291C26.7244 23.466 27.2941 24.6181 27.2941 25.0288C27.2941 25.7296 26.7192 26.3014 26.0147 26.3014Z"
            fill="#181818" />
    </symbol>
    <symbol id="third" viewBox="0 0 30 30">
        <path
            d="M28.125 3.64706V0H3.75V3.64706H2.7825C1.24875 3.64706 0 4.87794 0 6.39147V11.8438C0 13.3574 1.24875 14.5882 2.7825 14.5882H14.0775C14.5931 14.5882 15.015 14.9985 15.015 15.5V18.2353H13.125V31H18.75V18.2353H16.89V15.5C16.89 13.9919 15.6281 12.7647 14.0775 12.7647H2.7825C2.28375 12.7647 1.875 12.3508 1.875 11.8438V6.39147C1.875 5.88453 2.28375 5.47059 2.7825 5.47059H3.75V10.9412H28.125V5.47059H30V3.64706H28.125ZM16.875 29.1765H15V20.0588H16.875V29.1765ZM26.25 9.11765H5.625V1.82353H26.25V9.11765Z"
            fill="#181818" />
    </symbol>

</svg>